<svg width="28" height="14" viewBox="0 0 28 14" fill="none" xmlns="http://www.w3.org/2000/svg">
<path d="M0.24894 14H27.1008C27.2385 14 27.3496 13.8887 27.3496 13.7508C27.3496 6.19732 21.215 0.0541992 13.6741 0.0541992C6.13311 0.0541992 0.000171661 6.19899 0.000171661 13.7508C0.000171661 13.8887 0.111288 14 0.24894 14ZM26.8504 13.5016H0.501026C0.633701 6.33853 6.49299 0.55256 13.6757 0.55256C20.8585 0.55256 26.7177 6.33853 26.8504 13.5016Z" fill="#BFAF6A"/>
<path d="M3.4166 14C3.55425 14 3.66537 13.8887 3.66537 13.7508C3.66537 8.22236 8.15644 3.72382 13.6757 3.72382C19.1951 3.72382 23.6861 8.22236 23.6861 13.7508C23.6861 13.8887 23.7972 14 23.9349 14C24.0725 14 24.1837 13.8887 24.1837 13.7508C24.1837 7.94826 19.4704 3.22546 13.6757 3.22546C7.88113 3.22546 3.16783 7.9466 3.16783 13.7508C3.16783 13.8887 3.27895 14 3.4166 14Z" fill="#BFAF6A"/>
<path d="M6.59533 13.9999C6.73298 13.9999 6.84409 13.8886 6.84409 13.7508C6.84409 9.97817 9.9089 6.90827 13.6752 6.90827C17.4416 6.90827 20.5064 9.97817 20.5064 13.7508C20.5064 13.8886 20.6175 13.9999 20.7551 13.9999C20.8928 13.9999 21.0039 13.8886 21.0039 13.7508C21.0039 9.70408 17.7169 6.40991 13.6752 6.40991C9.6336 6.40991 6.34656 9.70241 6.34656 13.7508C6.34656 13.8886 6.45768 13.9999 6.59533 13.9999Z" fill="#BFAF6A"/>
<path d="M9.77412 14C9.91177 14 10.0229 13.8887 10.0229 13.7508C10.0229 11.7341 11.6614 10.0928 13.6748 10.0928C15.6881 10.0928 17.3267 11.7341 17.3267 13.7508C17.3267 13.8887 17.4378 14 17.5755 14C17.7131 14 17.8242 13.8887 17.8242 13.7508C17.8242 11.4584 15.9634 9.59448 13.6748 9.59448C11.3861 9.59448 9.52535 11.4584 9.52535 13.7508C9.52535 13.8887 9.63647 14 9.77412 14Z" fill="#BFAF6A"/>
</svg>
