<svg width="30" height="15" viewBox="0 0 30 15" fill="none" xmlns="http://www.w3.org/2000/svg">
<path d="M1.10005 14.9998H35.7947C36.9258 14.9998 37.8462 14.0779 37.8462 12.9449C37.8462 11.812 36.9258 10.89 35.7947 10.89H10.588C9.7306 10.89 9.03405 10.1923 9.03405 9.33348C9.03405 8.47464 9.7306 7.77693 10.588 7.77693H20.94C22.0711 7.77693 22.9915 6.85496 22.9915 5.72202C22.9915 4.58908 22.0711 3.66712 20.94 3.66712H17.4523C16.5949 3.66712 15.8984 2.96941 15.8984 2.11057C15.8984 1.25173 16.5949 0.554025 17.4523 0.554025H49.4719C49.6096 0.554025 49.7207 0.442724 49.7207 0.304844C49.7207 0.166965 49.6096 0.0556641 49.4719 0.0556641H17.4523C16.3213 0.0556641 15.4008 0.977633 15.4008 2.11057C15.4008 3.24351 16.3213 4.16548 17.4523 4.16548H20.94C21.7974 4.16548 22.494 4.86318 22.494 5.72202C22.494 6.58087 21.7974 7.27857 20.94 7.27857H10.588C9.45695 7.27857 8.53651 8.20054 8.53651 9.33348C8.53651 10.4664 9.45695 11.3884 10.588 11.3884H35.7947C36.6521 11.3884 37.3487 12.0861 37.3487 12.9449C37.3487 13.8038 36.6521 14.5015 35.7947 14.5015H1.10005C0.962399 14.5015 0.85128 14.6128 0.85128 14.7507C0.85128 14.8885 0.962399 14.9998 1.10005 14.9998Z" fill="#BFAF6A"/>
</svg>
